<?xml version="1.0" encoding="iso-8859-1"?>
<!-- Generator: Adobe Illustrator 19.0.0, SVG Export Plug-In . SVG Version: 6.00 Build 0)  -->
<svg version="1.1" id="Capa_1" xmlns="http://www.w3.org/2000/svg" xmlns:xlink="http://www.w3.org/1999/xlink" x="0px" y="0px"
	 viewBox="0 0 404 404" style="enable-background:new 0 0 404 404;" xml:space="preserve">
<g>
	<g>
		<path d="M396,139.12c-26.136-0.26-47.26-21.384-47.52-47.52c0-4.418-3.582-8-8-8H63.52c-4.418,0-8,3.582-8,8
			C55.26,117.736,34.136,138.86,8,139.12c-4.418,0-8,3.582-8,8v109.76c0,4.418,3.582,8,8,8c26.136,0.26,47.26,21.384,47.52,47.52
			c0,4.418,3.582,8,8,8h276.96c4.418,0,8-3.582,8-8c0.26-26.136,21.384-47.26,47.52-47.52c4.418,0,8-3.582,8-8V147.12
			C404,142.702,400.418,139.12,396,139.12z M388,249.28c-28.677,3.799-51.241,26.363-55.04,55.04H71.04
			c-3.799-28.677-26.363-51.241-55.04-55.04v-94.64c28.677-3.799,51.241-26.363,55.04-55.04h261.92
			c3.799,28.677,26.363,51.241,55.04,55.04V249.28z"/>
	</g>
</g>
<g>
	<g>
		<path d="M92.96,169.6c-1.411-1.091-3.184-1.606-4.96-1.44v0H48c-1.686-0.128-3.361,0.355-4.72,1.36
			c-2.099,2.025-2.159,5.367-0.134,7.466c0.044,0.046,0.089,0.09,0.134,0.134c1.366,1.059,3.077,1.573,4.8,1.44h13.76v45.2
			c-0.186,2.076,0.445,4.143,1.76,5.76c1.167,1.275,2.833,1.976,4.56,1.92c1.702,0.044,3.338-0.658,4.48-1.92
			c1.315-1.617,1.946-3.684,1.76-5.76v-45.2h13.76c1.722,0.118,3.427-0.394,4.8-1.44c1.076-0.946,1.665-2.329,1.6-3.76
			C94.602,171.933,94.018,170.559,92.96,169.6z"/>
	</g>
</g>
<g>
	<g>
		<path d="M115.04,174.72c0.186-2.076-0.445-4.143-1.76-5.76c-1.206-1.258-2.9-1.93-4.64-1.84c-1.704-0.055-3.344,0.649-4.48,1.92
			c-1.315,1.617-1.946,3.684-1.76,5.76v48.96c-0.186,2.076,0.445,4.143,1.76,5.76c1.136,1.271,2.776,1.974,4.48,1.92
			c1.753,0.069,3.448-0.632,4.64-1.92c1.315-1.617,1.946-3.684,1.76-5.76V174.72z"/>
	</g>
</g>
<g>
	<g>
		<path d="M180.56,207.2c-0.975-1.167-2.4-1.865-3.92-1.92h0c-1.451-0.149-2.884,0.418-3.84,1.52c-0.884,1.213-1.56,2.565-2,4
			c-1.009,3.196-2.996,5.994-5.68,8c-2.695,1.871-5.921,2.825-9.2,2.72c-3.077,0.055-6.105-0.778-8.72-2.4
			c-2.616-1.75-4.627-4.264-5.76-7.2c-1.46-3.854-2.14-7.961-2-12.08c-0.356-5.934,1.276-11.818,4.64-16.72
			c2.92-3.878,7.548-6.088,12.4-5.92c2.839-0.046,5.626,0.762,8,2.32c2.307,1.714,4.195,3.93,5.52,6.48
			c0.706,1.435,1.623,2.757,2.72,3.92c1.014,0.818,2.301,1.218,3.6,1.12c1.412-0.001,2.754-0.614,3.68-1.68
			c0.992-1.03,1.538-2.41,1.52-3.84c-0.222-2.917-1.308-5.703-3.12-8c-2.163-3.138-5.043-5.716-8.4-7.52
			c-4.172-2.074-8.781-3.117-13.44-3.04c-4.002-0.015-7.968,0.746-11.68,2.24c-3.591,1.434-6.836,3.616-9.52,6.4
			c-2.885,2.959-5.096,6.506-6.48,10.4c-1.508,4.317-2.239,8.868-2.16,13.44c-0.009,2.929,0.286,5.852,0.88,8.72
			c0.545,2.766,1.432,5.453,2.64,8c1.105,2.353,2.503,4.557,4.16,6.56c1.731,2.052,3.784,3.808,6.08,5.2
			c2.262,1.332,4.719,2.304,7.28,2.88c2.941,0.656,5.947,0.979,8.96,0.96c3.888,0.081,7.753-0.627,11.36-2.08
			c5.624-2.272,10.152-6.629,12.64-12.16c0.9-2.017,1.389-4.192,1.44-6.4C182.207,209.646,181.625,208.221,180.56,207.2z"/>
	</g>
</g>
<g>
	<g>
		<path d="M245.28,222.32c-0.737-1.506-1.593-2.951-2.56-4.32l0,0l-17.68-25.28L240.4,178c1.647-1.357,2.684-3.315,2.88-5.44
			c0.014-1.461-0.598-2.858-1.68-3.84c-1.194-1.099-2.779-1.675-4.4-1.6c-1.185-0.07-2.362,0.238-3.36,0.88
			c-1.093,0.814-2.11,1.724-3.04,2.72l-24.72,25.76v-21.76c0.186-2.076-0.445-4.143-1.76-5.76c-1.192-1.288-2.887-1.989-4.64-1.92
			c-1.731-0.079-3.406,0.627-4.56,1.92c-1.243,1.651-1.841,3.699-1.68,5.76v46.24c0,1.973,0,3.493,0,4.56
			c0.065,0.944,0.309,1.867,0.72,2.72c0.539,0.976,1.344,1.781,2.32,2.32c0.943,0.567,2.02,0.87,3.12,0.88
			c1.725,0.046,3.387-0.654,4.56-1.92c1.315-1.617,1.946-3.684,1.76-5.76v-12.88l10.32-9.92l14.88,22.88l2,3.36
			c0.711,1.176,1.666,2.185,2.8,2.96c1.294,0.802,2.8,1.192,4.32,1.12c1.608,0.08,3.184-0.465,4.4-1.52
			c1.024-0.916,1.606-2.226,1.6-3.6C246.21,224.824,245.882,223.512,245.28,222.32z"/>
	</g>
</g>
<g>
	<g>
		<path d="M304.4,222c-1.28-1.178-2.984-1.785-4.72-1.68h0h-29.36v-17.68h26.16c1.561,0.12,3.109-0.367,4.32-1.36
			c0.948-0.889,1.472-2.141,1.44-3.44c0.054-1.303-0.474-2.564-1.44-3.44c-1.23-0.95-2.771-1.406-4.32-1.28h-26.16V178h28.4
			c1.611,0.121,3.208-0.364,4.48-1.36c0.97-0.908,1.496-2.193,1.44-3.52c0.067-1.329-0.461-2.619-1.44-3.52
			c-1.272-0.996-2.869-1.481-4.48-1.36h-33.28c-1.507-0.051-3.007,0.222-4.4,0.8c-1.131,0.481-2.043,1.365-2.56,2.48
			c-0.58,1.392-0.853,2.893-0.8,4.4v46.72c-0.912,3.506,1.191,7.088,4.698,8c1.083,0.282,2.22,0.282,3.302,0h34.24
			c1.612,0.129,3.212-0.357,4.48-1.36c1.012-0.918,1.568-2.235,1.52-3.6C305.981,224.289,305.425,222.943,304.4,222z"/>
	</g>
</g>
<g>
	<g>
		<path d="M361.12,169.6c-1.39-1.072-3.131-1.585-4.88-1.44h-40c-1.776-0.166-3.549,0.349-4.96,1.44v0
			c-2.099,2.025-2.159,5.367-0.134,7.466c0.044,0.046,0.089,0.09,0.134,0.134c1.366,1.059,3.077,1.573,4.8,1.44H330v45.2
			c-0.186,2.076,0.445,4.143,1.76,5.76c1.167,1.275,2.833,1.976,4.56,1.92c1.702,0.044,3.338-0.658,4.48-1.92
			c1.315-1.617,1.946-3.684,1.76-5.76v-45.28h13.76c1.722,0.118,3.427-0.394,4.8-1.44c1.076-0.946,1.665-2.329,1.6-3.76
			C362.762,171.933,362.178,170.559,361.12,169.6z"/>
	</g>
</g>
<g>
</g>
<g>
</g>
<g>
</g>
<g>
</g>
<g>
</g>
<g>
</g>
<g>
</g>
<g>
</g>
<g>
</g>
<g>
</g>
<g>
</g>
<g>
</g>
<g>
</g>
<g>
</g>
<g>
</g>
</svg>
