<?xml version="1.0" encoding="utf-8"?>
<!-- Svg Vector Icons : http://www.onlinewebfonts.com/icon -->
<!DOCTYPE svg PUBLIC "-//W3C//DTD SVG 1.1//EN" "http://www.w3.org/Graphics/SVG/1.1/DTD/svg11.dtd">
<svg version="1.1" xmlns="http://www.w3.org/2000/svg" xmlns:xlink="http://www.w3.org/1999/xlink" x="0px" y="0px" viewBox="0 0 1000 1000" enable-background="new 0 0 1000 1000" xml:space="preserve">
<metadata> Svg Vector Icons : http://www.onlinewebfonts.com/icon </metadata>
<g><g transform="translate(0.000000,511.000000) scale(0.100000,-0.100000)"><path d="M553.6,2944.6c-111-40.2-197.1-116.8-250.7-225.9l-49.8-99.5V2068c0-608.6,3.8-637.4,120.6-757.9c109.1-114.8,191.4-145.5,419.2-153.1l204.8-7.7l174.2-275.6c95.7-151.2,187.6-283.3,206.7-292.8c24.9-13.4,13.4-23-51.7-42.1C1231.2,510,1091.5,393.3,1057,311l-23-57.4H567H100V100.4V-52.7h465.1l463.2-1.9l55.5-86.1c145.5-229.7,480.4-269.9,677.6-78.5c36.4,34.4,76.6,84.2,91.9,114.8l28.7,51.7h779l779-1.9l47.9-78.5c51.7-84.2,179.9-178,273.7-199c45.9-9.6,51.7-15.3,28.7-28.7c-17.2-9.6-111-145.5-208.6-302.4l-178-285.2l-223.9-7.7c-214.4-5.7-227.8-7.6-306.2-63.2c-45.9-32.5-109.1-95.7-141.6-141.6l-57.4-82.3l-5.7-557c-3.8-384.7,1.9-583.8,17.2-639.3c28.7-103.4,130.1-222,233.5-271.8c80.4-38.3,109.1-40.2,943.6-40.2h859.4l97.6,46c107.2,49.7,187.6,141.6,229.7,254.6c36.4,103.3,36.4,1094.8,0,1198.1c-40.2,109.1-118.7,201-222,252.7c-82.3,42.1-118.7,47.9-294.8,47.9h-199.1l-168.4,269.9c-91.9,149.3-183.7,285.2-202.9,304.3c-34.4,30.6-32.5,32.5,42.1,55.5c88,26.8,218.2,134,260.3,216.3l28.7,53.6h779l779-1.9l51.7-84.2c139.7-229.7,484.2-271.8,681.4-80.4c36.4,34.4,76.6,84.2,91.9,114.8l28.7,51.7h779l779-1.9l47.9-78.5c51.7-84.2,179.9-178,273.7-199c45.9-9.6,51.7-15.3,28.7-28.7c-17.2-9.6-111-145.5-208.6-302.4l-178-285.2l-223.9-7.7c-214.4-5.7-227.8-7.6-306.3-63.2c-45.9-32.5-109.1-95.7-141.6-141.6l-57.4-82.3l-5.7-579.9c-5.7-560.8-3.8-583.8,36.4-668c45.9-97.6,143.6-193.3,239.2-233.5c51.7-21.1,237.3-26.8,920.6-26.8h857.5l97.6,46c107.2,49.7,187.6,141.6,229.7,254.6c30.6,90,38.3,1068,7.7,1177.1c-28.7,103.3-130.2,225.8-229.7,275.6c-72.7,38.3-114.8,44-290.9,45.9H9157l-168.4,269.9c-91.9,149.3-183.8,285.2-202.9,304.3c-34.5,30.6-32.5,32.5,42.1,55.5c88,26.8,218.2,134,260.3,216.3l28.7,53.6h313.9h315.8v153.1v153.1h-312h-310.1l-38.3,68.9c-101.4,187.6-319.6,275.6-534,216.3c-86.1-23-227.8-147.4-260.3-227.8l-23-57.4H7488h-779l-21,45.9c-40.2,88-139.7,181.8-243.1,223.9c-82.3,34.4-97.6,47.9-76.6,63.2c15.3,11.5,103.4,141.6,197.1,289l168.4,268l210.5,11.5c292.9,15.3,413.4,84.2,503.4,285.2c36.3,80.4,40.2,124.4,40.2,614.4c0,595.3-9.6,650.8-130.1,773.3c-141.7,141.6-86.1,134-1077.6,134h-891.9l-93.8-57.4c-57.4-36.4-114.8-93.8-151.2-151.2l-57.4-93.8l-5.7-557c-3.8-373.2,0-581.9,15.3-629.7c26.8-91.9,135.9-214.4,237.3-268c61.2-30.6,122.5-42.1,283.3-47.8l204.8-7.7l174.2-275.6c95.7-151.2,187.6-283.3,206.7-292.8c24.9-13.4,13.4-23-51.7-42.1c-95.7-28.7-235.4-145.5-269.9-227.8l-23-57.4h-780.9h-779l-19.1,44c-90,197.1-329.2,302.4-549.3,241.2c-86.1-23-227.8-147.4-260.3-227.8l-23-57.4h-780.9h-779l-21,45.9c-40.2,88-139.7,181.8-243.1,223.9c-82.3,34.4-97.6,47.9-76.6,63.2c15.3,11.5,103.4,141.6,197.1,289l168.4,268l208.6,11.5c294.8,15.3,415.3,84.2,505.3,285.2c36.4,80.4,40.2,124.4,40.2,614.4c0,602.9-7.7,643.1-137.8,777.1c-135.9,139.7-143.5,139.7-1075.7,139.7C812,2969.5,611,2963.8,553.6,2944.6z M2310.7,2617.3l47.8-45.9v-497.6c0-273.7-5.7-511-11.5-528.3c-24.9-65.1-112.9-86.1-348.3-86.1c-268,0-250.7,11.5-415.3-254.6c-63.2-101.4-120.6-185.7-128.2-185.7c-7.7,0-65.1,84.2-130.1,187.6c-63.2,105.3-130.1,202.9-149.3,220.1c-24.9,23-90,30.6-287.1,36.4c-356,7.7-329.2-40.2-329.2,608.6v514.9l49.8,38.3c49.8,38.3,70.8,40.2,853.6,40.2h802L2310.7,2617.3z M7133.9,2617.3l47.9-45.9v-505.3c0-641.2,26.8-593.3-329.2-606.7c-139.7-5.7-267.9-17.2-283.3-28.7c-17.2-9.6-86.1-107.2-153.1-214.4c-68.9-109.1-130.1-197.1-137.8-197.1c-5.7,0-61.3,80.4-122.5,178c-172.3,277.5-141.6,258.4-442.1,266c-357.9,7.7-331.1-40.2-331.1,608.6v514.9l49.8,38.3c49.8,38.3,70.8,40.2,853.7,40.2h802L7133.9,2617.3z M1525.9,242.1c44-17.2,90-116.8,74.6-166.5c-23-74.6-67-109.1-143.5-109.1c-134,0-197.1,147.4-103.4,239.3C1399.6,251.6,1462.8,265,1525.9,242.1z M3937.6,242.1c44-17.2,90-116.8,74.6-166.5c-23-74.6-67-109.1-143.5-109.1c-134,0-197.1,147.4-103.4,239.3C3811.2,251.6,3874.4,265,3937.6,242.1z M6349.2,242.1c44-17.2,90-116.8,74.7-166.5c-23-74.6-67-109.1-143.6-109.1c-134,0-197.2,147.4-103.4,239.3C6222.9,251.6,6286,265,6349.2,242.1z M8760.8,242.1c44-17.2,90-116.8,74.6-166.5c-23-74.6-67-109.1-143.6-109.1c-134,0-197.1,147.4-103.4,239.3C8634.5,251.6,8697.7,265,8760.8,242.1z M4012.2-1011.6c84.2-137.8,147.4-218.2,178-229.7c24.9-9.6,149.3-17.2,273.7-17.2c325.4,0,306.2,36.4,306.2-593.3c0-468.9-1.9-495.7-40.2-543.6l-38.3-49.7h-823c-796.2,0-823,1.9-859.4,38.3c-36.4,36.4-38.3,63.1-38.3,555c0,639.3-23,593.3,306.2,593.3c128.2,0,248.8,9.6,275.6,21c28.7,13.4,97.6,103.4,176.1,229.7c70.8,114.8,134,208.6,139.7,208.6C3874.4-799.1,3939.5-894.8,4012.2-1011.6z M8835.5-1011.6c84.2-137.8,147.4-218.2,178-229.7c24.9-9.6,149.3-17.2,273.7-17.2c325.4,0,306.2,36.4,306.2-593.3c0-468.9-1.9-495.7-40.2-543.6l-38.3-49.7h-823c-796.2,0-823,1.9-859.4,38.3c-36.4,36.4-38.3,63.1-38.3,555c0,639.3-23,593.3,306.2,593.3c128.2,0,248.8,9.6,275.6,21c28.7,13.4,97.6,103.4,176.1,229.7c70.8,114.8,134,208.6,139.7,208.6S8762.7-894.8,8835.5-1011.6z"/></g></g>
</svg>