<svg height="511pt" viewBox="-30 0 511 511.99889" width="511pt" xmlns="http://www.w3.org/2000/svg"><path d="m49.1875 183.683594h-.164062c-20.542969 0-37.195313 16.652344-37.195313 37.195312v75.574219c0 5.519531 4.476563 10 10 10h54.554687c5.519532 0 10-4.480469 10-10v-75.574219c0-20.542968-16.65625-37.195312-37.195312-37.195312zm17.195312 102.765625h-34.554687v-65.488281c0-9.542969 7.734375-17.277344 17.277344-17.277344 9.539062 0 17.277343 7.734375 17.277343 17.277344zm0 0"/><path d="m136.457031 136.101562h-.164062c-20.542969 0-37.195313 16.652344-37.195313 37.195313v123.15625c0 5.519531 4.476563 10 10 10h54.554688c5.523437 0 10-4.480469 10-10v-123.15625c0-20.542969-16.652344-37.195313-37.195313-37.195313zm17.195313 150.347657h-34.554688v-113.070313c0-9.542968 7.734375-17.277344 17.277344-17.277344s17.277344 7.734376 17.277344 17.277344zm0 0"/><path d="m59.636719 117.621094c0-5.296875-1.40625-10.269532-3.859375-14.578125l15.105468-17.578125c3.277344 1.257812 6.828126 1.953125 10.542969 1.953125 7.203125 0 13.8125-2.59375 18.945313-6.890625l14.203125 8.3125c-.289063 1.65625-.449219 3.359375-.449219 5.097656 0 16.304688 13.265625 29.570312 29.566406 29.570312 16.304688 0 29.570313-13.265624 29.570313-29.570312 0-4.160156-.867188-8.121094-2.425781-11.714844l44.359374-47.246094.949219 9.164063c.53125 5.144531 4.871094 8.972656 9.933594 8.972656.34375 0 .691406-.015625 1.039063-.054687 5.496093-.566406 9.488281-5.480469 8.917968-10.972656l-2.890625-27.984376c.90625-3.433593-.050781-7.242187-2.824219-9.84375-.074218-.070312-.15625-.132812-.234374-.199218-1.773438-1.914063-4.28125-3.125-7.066407-3.199219l-32.417969-.85546875c-5.527343-.17187525-10.113281 4.21484375-10.257812 9.73437475-.148438 5.519531 4.210938 10.113281 9.730469 10.257813l11.46875.304687-44.417969 47.308594c-4.035156-2.066406-8.597656-3.242187-13.433594-3.242187-7.320312 0-14.023437 2.683593-19.195312 7.105468l-14.007813-8.199218c.328125-1.761719.507813-3.574219.507813-5.425782 0-16.304687-13.265625-29.570312-29.570313-29.570312-16.304687 0-29.570312 13.265625-29.570312 29.570312 0 5.296875 1.410156 10.269532 3.863281 14.578125l-15.105469 17.578125c-3.277343-1.257812-6.832031-1.953125-10.542969-1.953125-16.304687 0-29.570312 13.265625-29.570312 29.570313 0 16.304687 13.265625 29.570312 29.570312 29.570312 16.300782 0 29.566407-13.265625 29.566407-29.570312zm84.054687-33.253906c5.277344 0 9.570313 4.292968 9.570313 9.570312 0 5.273438-4.292969 9.566406-9.570313 9.566406-5.273437 0-9.566406-4.292968-9.566406-9.566406 0-5.277344 4.292969-9.570312 9.566406-9.570312zm-62.265625-36.089844c5.277344 0 9.570313 4.292968 9.570313 9.570312 0 5.273438-4.292969 9.566406-9.570313 9.566406-5.277343 0-9.570312-4.292968-9.570312-9.566406 0-5.277344 4.292969-9.570312 9.570312-9.570312zm-60.925781 69.34375c0-5.277344 4.292969-9.566406 9.570312-9.566406 5.277344 0 9.566407 4.289062 9.566407 9.566406s-4.289063 9.570312-9.566407 9.570312c-5.277343 0-9.570312-4.292968-9.570312-9.570312zm0 0"/><path d="m311.632812 230.019531c.027344-.085937 2.667969-8.894531 8.132813-19.847656 7.039063-14.101563 15.386719-24.957031 24.144531-31.390625 4.449219-3.269531 5.40625-9.527344 2.136719-13.976562-3.269531-4.449219-9.527344-5.410157-13.976563-2.140626-17.210937 12.640626-28.390624 33.613282-34.355468 47.546876l-17.335938-14.980469c-4.175781-3.609375-10.492187-3.148438-14.101562 1.027343-3.613282 4.179688-3.152344 10.496094 1.027344 14.105469l28.203124 24.375c1.839844 1.589844 4.167969 2.433594 6.542969 2.433594.9375 0 1.882813-.128906 2.804688-.402344 3.257812-.953125 5.8125-3.492187 6.777343-6.75zm0 0"/><path d="m450.988281 406.648438v-31.074219c0-24.703125-20.023437-44.730469-44.726562-44.730469h-41.726563v-50.644531c23.21875-17.421875 36.929688-44.644531 36.929688-73.875 0-50.921875-41.425782-92.351563-92.347656-92.351563-17.179688 0-33.84375 4.855469-48.195313 13.632813v-16.542969c0-20.542969-16.652344-37.195312-37.195313-37.195312h-.164062c-20.542969 0-37.195312 16.652343-37.195312 37.195312v185.386719c0 5.523437 4.476562 10 10 10h54.554687c5.523437 0 10-4.476563 10-10v-11.351563c13.800781 8.484375 29.441406 13.117188 45.820313 13.527344v69.816406l-5.019532-6.640625c-4.769531-6.316406-11.980468-10.484375-19.875-11.007812-15.582031-1.03125-28.59375 11.351562-28.59375 26.71875v12.019531c0 18.847656 6.425782 37.125 18.21875 51.824219l9.582032 11.945312c-6.117188 5.265625-10 13.054688-10 21.742188v26.957031c0 5.523438 4.476562 10 10 10h156.488281c5.523437 0 10-4.476562 10-10v-26.957031c0-8.910157-4.082031-16.882813-10.46875-22.148438l3.445312-6.152343c6.863281-12.25 10.46875-26.054688 10.46875-40.09375zm-211.230469-179.675782c-1.574218-5.292968-7.136718-8.308594-12.4375-6.734375-5.292968 1.570313-8.308593 7.140625-6.734374 12.433594 3.945312 13.28125 10.992187 25.601563 20.335937 35.871094v17.910156h-34.554687v-175.304687c0-9.542969 7.734374-17.28125 17.277343-17.28125s17.277344 7.738281 17.277344 17.28125v32.925781c-2.175781 2.375-4.238281 4.871093-6.167969 7.488281-3.222656 4.363281-2.757812 10.597656 1.441406 14.027344 4.484376 3.664062 11.058594 2.773437 14.421876-1.839844 13.59375-18.644531 35.464843-29.773438 58.5-29.773438 39.894531 0 72.347656 32.453126 72.347656 72.347657 0 17.761719-6.464844 34.570312-17.851563 47.59375-3.304687-12.753907-15.121093-22.113281-28.996093-21.632813-15.644532.542969-27.875 13.765625-27.875 29.417969v16.917969c-30.828126-1.027344-58.164063-21.96875-66.984376-51.648438zm33.5 150.539063c0-3.738281 3.039063-6.777344 6.777344-6.777344 2.113282 0 4.132813 1.003906 5.40625 2.691406l10.058594 13.3125c4.578125 6.058594 12.1875 8.414063 19.390625 6 7.199219-2.414062 11.851563-8.882812 11.851563-16.476562v-115.101563c0-4.902344 3.992187-8.894531 8.898437-8.894531 4.902344 0 8.894531 3.992187 8.894531 8.894531v13.773438 79.582031c0 5.523437 4.476563 10 10 10 5.523438 0 10-4.476563 10-10v-3.671875h41.726563c13.636719 0 24.726562 11.09375 24.726562 24.730469v31.074219c0 10.589843-2.734375 21.074218-7.914062 30.3125l-5.257813 9.382812h-116.699218l-14.042969-17.503906c-8.910157-11.105469-13.816407-25.066406-13.816407-39.308594zm154.289063 114.488281h-136.492187v-16.957031c0-4.796875 3.902343-8.695313 8.695312-8.695313h119.101562c4.792969 0 8.695313 3.898438 8.695313 8.695313zm0 0"/><path d="m228.027344 181.910156c-5.523438 0-10 4.476563-10 10 0 5.523438 4.476562 10 10 10h.023437c5.523438 0 9.988281-4.476562 9.988281-10 0-5.523437-4.488281-10-10.011718-10zm0 0"/></svg>